<?xml version="1.0" standalone="no"?>
<!DOCTYPE svg PUBLIC "-//W3C//DTD SVG 20010904//EN"
 "http://www.w3.org/TR/2001/REC-SVG-20010904/DTD/svg10.dtd">
<svg version="1.0" xmlns="http://www.w3.org/2000/svg"
 width="395.000000pt" height="395.000000pt" viewBox="0 0 395.000000 395.000000"
 preserveAspectRatio="xMidYMid meet">
<metadata>
Created by potrace 1.11, written by Peter Selinger 2001-2013
</metadata>
<g transform="translate(0.000000,395.000000) scale(0.100000,-0.100000)"
fill="#000000" stroke="none">
<path d="M1809 3923 c-1 -10 -1 -21 -1 -24 1 -3 2 -47 3 -98 l2 -92 76 2 c42
1 88 8 103 16 39 19 47 58 17 89 -17 19 -20 27 -11 36 19 19 14 56 -10 72 -16
11 -46 16 -100 16 -67 0 -78 -2 -79 -17z m132 -40 c18 -18 0 -33 -41 -33 -37
0 -44 9 -28 36 9 14 54 12 69 -3z m26 -87 c3 -3 3 -12 0 -21 -5 -10 -20 -15
-52 -15 -40 0 -45 2 -45 23 0 22 4 23 46 21 26 -2 49 -5 51 -8z"/>
<path d="M2165 3916 c-61 -27 -86 -108 -50 -163 51 -77 182 -82 230 -9 67 101
-62 224 -180 172z m98 -47 c77 -35 28 -150 -52 -124 -52 16 -68 73 -31 113 23
24 47 28 83 11z"/>
<path d="M1458 3877 c-42 -12 -79 -24 -82 -28 -5 -5 47 -205 56 -214 3 -3 27
1 54 9 27 8 68 19 91 25 34 9 40 15 36 31 -6 24 -22 25 -87 5 -55 -17 -53 -17
-58 10 -2 16 6 22 50 34 44 12 52 18 52 37 0 13 -1 24 -2 24 -2 0 -28 -7 -58
-15 -42 -11 -56 -12 -62 -2 -14 22 -2 31 55 45 50 12 57 17 57 38 0 29 -3 29
-102 1z"/>
<path d="M2486 3818 c-21 -61 -52 -108 -70 -108 -11 0 -51 -79 -43 -86 1 -1
14 -5 28 -9 21 -5 27 -2 32 14 5 20 7 20 54 6 26 -9 58 -18 71 -21 18 -5 22
-12 20 -32 -2 -18 3 -27 18 -33 19 -6 24 -2 38 33 11 29 13 45 5 54 -7 9 -3
36 16 95 14 45 24 83 23 84 -2 1 -37 13 -78 25 -41 13 -80 25 -85 27 -6 2 -19
-20 -29 -49z m122 -33 c4 -3 -30 -109 -38 -118 -5 -6 -64 8 -78 18 -1 1 12 29
29 63 31 64 35 65 87 37z"/>
<path d="M1220 3795 c-10 -12 -4 -33 35 -114 46 -96 49 -99 71 -89 13 6 24 14
24 18 0 4 -20 50 -45 104 -45 95 -61 110 -85 81z"/>
<path d="M2787 3738 c-69 -112 -97 -172 -85 -180 45 -30 112 -58 141 -58 87 0
93 114 8 150 -35 14 -38 26 -14 59 15 23 15 25 -2 37 -26 19 -32 18 -48 -8z
m68 -157 c12 -32 -32 -39 -75 -12 -12 8 -12 13 -1 35 14 25 15 25 42 9 16 -9
31 -24 34 -32z"/>
<path d="M1025 3708 c-11 -6 -21 -12 -23 -13 -5 -4 92 -205 100 -205 16 0 124
59 138 75 18 22 15 73 -6 96 -21 23 -74 25 -115 3 -17 -8 -32 -14 -34 -12 -1
2 -10 18 -19 36 -9 17 -18 32 -19 32 -1 0 -11 -6 -22 -12z m168 -91 c7 -18 -2
-31 -30 -46 -31 -16 -41 -14 -49 11 -4 15 -1 25 12 35 23 17 60 17 67 0z"/>
<path d="M2942 3554 c-50 -90 -52 -97 -35 -110 10 -7 23 -12 28 -10 6 1 34 45
62 97 48 85 51 95 36 107 -9 6 -22 12 -27 12 -6 0 -35 -43 -64 -96z"/>
<path d="M872 3612 l-22 -17 25 -35 c14 -18 25 -35 25 -36 0 -1 -16 -14 -36
-29 l-37 -28 -31 37 c-31 38 -31 38 -50 17 -18 -20 -17 -21 40 -102 33 -46 62
-87 65 -92 7 -10 49 13 49 26 0 5 -10 23 -22 40 l-22 30 34 29 c19 15 37 28
41 28 4 0 17 -16 29 -35 18 -29 25 -33 40 -25 10 6 21 14 24 19 4 7 -119 192
-127 191 -1 0 -12 -8 -25 -18z"/>
<path d="M1619 3457 c-19 -14 -78 -106 -101 -157 -80 -173 -103 -286 -102
-490 2 -387 192 -764 529 -1052 l80 -68 1 -352 c1 -194 2 -357 3 -361 0 -5 13
-7 29 -5 l27 3 3 226 2 225 120 1 c101 0 120 -2 124 -16 3 -9 5 -107 4 -219
-1 -165 2 -206 14 -218 12 -12 17 -12 33 -1 17 13 18 34 17 358 0 423 2 386
-22 392 -35 9 -44 -18 -43 -129 1 -91 -1 -104 -15 -104 -9 -1 -65 -2 -125 -3
l-107 -2 0 105 0 105 58 47 c89 73 123 106 127 127 2 10 25 49 51 87 80 117
196 382 218 497 2 12 7 33 10 47 20 84 29 188 28 305 -2 158 -46 302 -138 447
l-43 67 34 35 c19 20 36 36 38 36 9 0 70 -100 98 -161 92 -194 120 -450 73
-659 -3 -14 -8 -36 -11 -50 -12 -66 -70 -216 -121 -313 -54 -104 -126 -208
-199 -290 -19 -22 -32 -41 -29 -44 13 -13 170 189 235 301 80 141 151 331 166
449 3 23 7 58 10 77 10 81 6 222 -11 335 -21 145 -156 425 -205 425 -42 0
-268 -336 -315 -469 -10 -26 -13 -30 -14 -14 0 20 -3 21 -27 12 -16 -5 -36
-20 -46 -32 l-18 -22 11 23 c6 13 23 28 38 35 15 6 28 12 30 13 1 1 -3 13 -9
28 -9 20 -17 25 -33 20 -17 -4 -18 -3 -6 5 13 10 13 12 0 21 -8 5 -25 10 -36
10 -25 0 -74 -36 -74 -54 0 -7 -6 -20 -13 -31 -13 -16 -19 -8 -68 86 -67 128
-153 258 -216 327 -41 44 -50 50 -64 39z m81 -127 c6 -11 -4 -34 -31 -75 -49
-75 -104 -206 -123 -293 -15 -68 -16 -317 -1 -392 15 -81 60 -240 86 -307 54
-136 143 -301 203 -374 11 -14 -5 2 -37 35 -32 34 -82 97 -112 141 -180 269
-265 584 -233 855 17 142 99 362 164 440 l27 31 24 -23 c14 -13 29 -30 33 -38z
m92 -131 c16 -25 15 -28 -17 -74 -42 -59 -88 -169 -108 -260 -18 -77 -17 -295
1 -396 44 -244 120 -444 241 -631 35 -53 36 -57 10 -28 -150 171 -267 404
-323 644 -28 119 -36 191 -37 306 0 86 1 94 22 185 14 63 87 221 130 280 l32
44 16 -22 c9 -12 24 -34 33 -48z m646 -32 c51 -89 100 -219 108 -290 36 -287
-57 -641 -241 -922 -59 -90 -133 -177 -144 -170 -5 2 -23 -14 -40 -36 -26 -32
-36 -38 -47 -28 -20 17 -5 136 62 465 18 94 34 174 34 178 0 3 -12 4 -27 1
l-28 -5 28 11 c15 6 27 15 27 21 0 6 -8 7 -17 4 -15 -6 -15 -4 2 14 22 24 18
25 -24 4 -18 -9 -35 -14 -38 -11 -3 4 6 9 20 12 14 4 33 15 43 26 19 21 6 26
-16 7 -8 -7 -7 -4 3 8 24 28 10 38 -21 14 -13 -11 -32 -20 -41 -19 -10 0 -6 4
9 10 13 6 32 17 42 26 17 15 16 17 -3 44 -35 50 -26 151 32 364 6 22 34 85 62
139 l50 99 24 -29 c38 -47 102 -183 122 -259 18 -72 22 -257 7 -355 -35 -230
-123 -476 -228 -634 -42 -63 -47 -88 -6 -34 83 112 170 303 213 469 18 69 19
73 37 169 17 90 17 371 -1 435 -21 80 -79 205 -116 251 l-22 28 31 47 c37 57
42 55 104 -54z m-547 -129 c16 -32 29 -59 29 -62 0 -2 -14 -9 -31 -16 -18 -8
-38 -28 -50 -53 -20 -38 -20 -41 -4 -83 19 -49 21 -51 47 -27 10 9 18 13 18
10 0 -3 -9 -15 -20 -25 -18 -17 -19 -23 -9 -46 15 -33 24 -33 60 3 16 16 29
26 29 22 0 -9 -39 -45 -65 -59 -19 -11 -19 -11 3 -12 23 0 72 40 72 60 0 5 4
10 8 10 4 0 14 -27 21 -61 11 -46 11 -72 3 -107 -8 -35 -7 -49 1 -54 8 -5 6
-8 -5 -8 -17 0 -46 -50 -47 -80 0 -8 -2 -32 -3 -52 -3 -37 6 -47 28 -30 5 4 1
-1 -10 -11 -34 -32 -8 -30 29 2 31 27 43 31 88 30 l52 -2 -56 -6 c-44 -5 -64
-13 -93 -38 -34 -31 -36 -37 -11 -34 6 0 3 -4 -6 -11 -14 -10 -14 -17 -2 -67
16 -67 15 -66 43 -211 12 -63 24 -124 26 -135 2 -11 7 -51 11 -88 11 -118 -23
-105 -122 43 -121 182 -218 460 -241 690 -24 230 11 393 117 554 37 56 38 56
90 -46z m186 36 c-3 -3 -12 -4 -19 -1 -8 3 -5 6 6 6 11 1 17 -2 13 -5z m-48
-17 c-8 -7 -21 -21 -27 -32 -6 -11 -12 -14 -12 -7 0 13 35 52 48 52 4 0 0 -6
-9 -13z m41 -1 c0 -2 -12 -11 -27 -20 l-28 -17 24 20 c23 21 31 25 31 17z m19
-18 c-2 -2 -17 -14 -34 -28 l-30 -25 24 28 c14 15 29 27 34 27 6 0 8 -1 6 -2z
m-78 -51 c-10 -9 -11 -8 -5 6 3 10 9 15 12 12 3 -3 0 -11 -7 -18z m58 -4 c-13
-16 -25 -30 -26 -32 -2 -2 -3 0 -3 5 0 12 37 54 47 54 4 0 -4 -12 -18 -27z
m-85 2 c-7 -17 -43 -40 -51 -32 -2 3 4 8 15 11 11 4 23 13 26 21 3 8 8 15 10
15 3 0 3 -7 0 -15z m30 -42 c-11 -15 -26 -29 -33 -31 -7 -2 -1 7 13 22 14 14
26 31 26 37 0 7 3 9 7 6 4 -4 -2 -19 -13 -34z m100 9 c-16 -15 -31 -26 -34
-24 -5 4 47 52 57 52 3 0 -7 -12 -23 -28z m-130 -7 c-28 -22 -40 -18 -13 4 13
11 26 17 28 15 3 -2 -4 -11 -15 -19z m156 2 c0 -2 -9 -12 -20 -22 -24 -21 -27
-14 -4 9 15 15 24 20 24 13z m-260 -27 c-11 -11 -20 -25 -20 -32 0 -6 -3 -8
-6 -5 -8 8 23 57 36 57 6 0 1 -9 -10 -20z m146 -9 c-18 -19 -61 -37 -50 -20 3
5 12 9 20 9 7 0 19 9 26 20 7 10 14 17 17 15 2 -3 -4 -13 -13 -24z m-105 8
c-13 -5 -30 -17 -38 -27 -13 -15 -13 -15 -4 5 11 22 26 31 51 32 8 0 4 -5 -9
-10z m127 -18 c-7 -11 -19 -23 -26 -26 -7 -3 -3 8 10 24 26 32 36 34 16 2z
m-113 -3 c-11 -6 -27 -19 -35 -28 -12 -13 -13 -13 -5 0 12 21 37 40 49 40 6 0
2 -6 -9 -12z m126 -21 l-24 -22 19 27 c10 14 21 24 23 22 3 -3 -6 -15 -18 -27z
m39 13 c0 -16 -47 -60 -62 -60 -7 1 -1 7 14 15 15 8 29 24 33 35 7 21 15 27
15 10z m-140 -4 c0 -2 -12 -11 -27 -20 l-28 -17 24 20 c23 21 31 25 31 17z
m-1 -35 c-13 -11 -26 -17 -28 -15 -5 5 30 33 43 34 4 0 -2 -9 -15 -19z m-99
-11 c-6 -11 -13 -20 -16 -20 -2 0 0 9 6 20 6 11 13 20 16 20 2 0 0 -9 -6 -20z
m134 1 c-23 -11 -44 -25 -47 -32 -4 -10 -6 -11 -6 -1 -1 14 57 52 79 52 8 0
-4 -9 -26 -19z m-7 -34 c-12 -13 -24 -22 -26 -20 -6 4 30 43 40 43 5 0 -2 -10
-14 -23z m-112 3 c-3 -5 -11 -10 -16 -10 -6 0 -7 5 -4 10 3 6 11 10 16 10 6 0
7 -4 4 -10z m39 -27 c-11 -15 -26 -29 -33 -31 -7 -2 -1 7 13 22 14 14 26 31
26 37 0 7 3 9 7 6 4 -4 -2 -19 -13 -34z m20 -18 c-4 -9 -16 -21 -28 -27 -19
-10 -18 -8 4 15 29 31 31 32 24 12z m161 -225 c-3 -5 -12 -10 -18 -10 -7 0 -6
4 3 10 19 12 23 12 15 0z m20 -20 c-3 -5 -12 -10 -18 -10 -7 0 -6 4 3 10 19
12 23 12 15 0z m-81 -11 c3 -2 -9 -5 -26 -6 -18 0 -26 2 -18 7 13 8 36 8 44
-1z m43 -5 c-3 -3 -12 -4 -19 -1 -8 3 -5 6 6 6 11 1 17 -2 13 -5z m39 -9 c-11
-8 -29 -15 -40 -14 -15 0 -10 4 14 13 46 18 48 18 26 1z m-93 -15 c-18 -4 -39
-11 -46 -16 -7 -5 -4 -1 6 9 11 9 31 17 46 16 24 -1 23 -2 -6 -9z m12 -20 c-3
-5 -13 -10 -22 -10 -9 0 -28 -10 -42 -22 l-26 -23 24 27 c13 15 33 29 45 31
11 2 22 5 24 6 2 0 0 -3 -3 -9z m75 -26 c-34 -7 -108 -8 -103 -1 2 4 30 6 61
6 31 -1 50 -3 42 -5z m-120 -24 c0 -5 -5 -10 -11 -10 -5 0 -7 5 -4 10 3 6 8
10 11 10 2 0 4 -4 4 -10z m50 5 c0 -2 -10 -9 -22 -15 -22 -11 -22 -10 -4 4 21
17 26 19 26 11z m11 -60 c-18 -8 -36 -15 -40 -15 -13 1 45 29 59 29 8 0 0 -6
-19 -14z"/>
<path d="M3216 3420 c-54 -60 -46 -103 27 -153 17 -12 17 -14 -7 -42 l-26 -30
21 -20 20 -20 80 84 80 84 -20 21 -21 20 -38 -37 -38 -38 -27 21 c-34 27 -34
41 2 82 22 26 27 38 20 51 -15 26 -33 21 -73 -23z"/>
<path d="M560 3354 l-64 -65 83 -81 82 -81 56 55 c46 47 56 62 57 93 1 29 -5
41 -26 57 -34 26 -65 19 -115 -27 -31 -28 -39 -32 -46 -19 -6 11 4 28 37 61
34 36 42 50 34 60 -18 22 -31 15 -98 -53z m158 -76 c2 -9 -8 -28 -21 -44 -21
-24 -27 -26 -41 -15 -22 19 -20 28 12 56 29 26 45 27 50 3z"/>
<path d="M3400 3173 c-47 -35 -86 -68 -88 -73 -4 -11 99 -150 111 -150 5 0 14
6 22 13 11 11 6 22 -28 66 -33 43 -38 54 -26 62 21 13 23 12 55 -31 31 -42 43
-47 62 -28 9 9 3 23 -24 59 -33 45 -34 48 -16 58 16 8 24 2 55 -40 40 -53 48
-57 67 -34 10 12 3 26 -41 82 -29 38 -55 71 -58 74 -3 4 -44 -22 -91 -58z"/>
<path d="M383 3143 c-28 -37 -53 -73 -57 -80 -5 -10 141 -126 171 -135 6 -2
35 31 66 72 49 66 53 76 38 87 -24 18 -25 17 -62 -37 -19 -27 -40 -50 -47 -50
-27 0 -23 31 8 71 31 38 32 41 16 57 -19 18 -23 15 -73 -54 -16 -21 -21 -23
-35 -12 -16 12 -14 17 22 64 38 50 38 52 21 68 -18 16 -21 13 -68 -51z"/>
<path d="M3621 2947 c-17 -37 -35 -66 -40 -63 -4 3 -36 8 -70 12 l-62 6 14
-29 c13 -24 22 -29 58 -32 24 -1 45 -4 47 -6 2 -1 -6 -22 -18 -45 -21 -41 -21
-42 -2 -71 l19 -30 28 66 28 66 61 -6 c34 -4 64 -9 69 -12 10 -6 9 2 -5 32 -6
14 -16 25 -22 26 -23 2 -71 10 -74 13 -1 2 5 20 14 40 16 33 16 39 2 68 l-16
33 -31 -68z"/>
<path d="M243 2930 c-10 -26 -8 -28 33 -49 47 -22 51 -30 33 -64 -18 -34 -30
-37 -70 -16 -49 24 -54 24 -66 -4 -10 -22 -8 -26 35 -46 26 -13 55 -25 64 -26
28 -6 76 42 84 80 l6 34 38 -19 37 -19 12 26 c6 14 10 27 9 28 -2 2 -48 25
-104 53 l-100 50 -11 -28z"/>
<path d="M3688 2673 c-54 -20 -98 -41 -98 -47 0 -27 29 -45 104 -69 l79 -24
-57 -22 c-31 -11 -61 -21 -66 -21 -12 0 -12 -3 0 -34 l9 -26 103 36 c57 20
105 38 107 40 2 2 1 14 -3 27 -5 20 -19 28 -86 48 -44 13 -80 26 -80 30 0 3
27 14 60 24 33 10 60 21 60 24 -1 22 -14 51 -24 50 -6 -1 -55 -17 -108 -36z"/>
<path d="M95 2590 c-16 -49 -27 -91 -24 -93 12 -10 204 -65 211 -61 11 7 59
164 53 175 -4 5 -14 9 -24 9 -14 0 -23 -15 -35 -60 -11 -39 -22 -60 -32 -60
-24 0 -28 28 -11 72 18 45 16 53 -11 60 -16 4 -22 -4 -36 -48 -10 -31 -23 -54
-31 -54 -24 0 -25 14 -6 76 17 54 18 60 2 66 -9 4 -19 7 -22 7 -3 1 -18 -39
-34 -89z"/>
<path d="M35 2376 c-9 -29 -26 -156 -22 -163 3 -5 18 -10 34 -11 64 -5 118
-27 131 -55 15 -31 51 -37 53 -9 4 63 -20 87 -102 103 -59 12 -59 12 -59 47 0
35 0 35 38 28 20 -3 63 -9 95 -13 l59 -6 -4 28 c-2 16 -10 29 -18 31 -8 1 -33
5 -55 8 -22 4 -64 10 -93 15 -38 6 -55 5 -57 -3z"/>
<path d="M3768 2371 c-85 -14 -88 -16 -88 -41 0 -24 10 -32 79 -66 86 -42 86
-46 -5 -59 -41 -5 -51 -10 -49 -23 2 -9 4 -23 4 -30 1 -9 11 -11 34 -7 44 7
82 13 132 21 57 8 67 16 57 43 -5 15 -35 37 -81 61 -40 21 -69 40 -64 43 4 3
34 8 66 12 55 7 58 9 55 34 -4 32 -18 33 -140 12z"/>
<path d="M708 2030 l-23 -6 0 -524 0 -525 30 0 30 0 3 175 2 175 73 37 c163
85 261 229 274 404 9 122 -44 225 -131 254 -38 12 -218 19 -258 10z m232 -75
c91 -47 112 -195 47 -334 -26 -56 -126 -158 -185 -188 -24 -13 -46 -23 -48
-23 -2 0 -4 126 -4 280 l0 280 80 0 c52 0 91 -5 110 -15z"/>
<path d="M11 1961 c-4 -3 -7 -31 -6 -61 3 -78 16 -223 20 -230 1 -3 6 -25 9
-50 11 -79 52 -232 91 -335 229 -612 729 -1062 1361 -1225 61 -16 133 -31 160
-34 27 -4 60 -9 74 -12 44 -10 393 -13 465 -4 134 18 151 21 265 50 469 117
882 410 1154 817 134 202 239 451 286 683 25 119 47 315 42 369 l-4 37 -103
-1 c-57 0 -106 -3 -108 -5 -2 -3 -7 -52 -10 -110 -18 -307 -117 -595 -296
-861 -76 -114 -93 -134 -214 -257 -236 -241 -574 -423 -886 -477 -19 -3 -37
-8 -40 -10 -42 -25 -559 -26 -601 0 -3 2 -21 6 -40 9 -73 12 -93 17 -197 52
-600 196 -1048 698 -1173 1313 -21 104 -34 220 -34 299 0 23 -2 43 -5 43 -22
5 -203 4 -210 0z"/>
<path d="M1232 1720 c-55 -13 -104 -60 -131 -126 -21 -51 -25 -76 -26 -184 -3
-306 64 -444 216 -442 130 2 196 131 204 402 6 194 -23 282 -105 329 -40 22
-110 32 -158 21z m126 -76 c47 -31 66 -96 67 -236 4 -265 -39 -379 -142 -378
-95 1 -136 105 -136 350 -1 154 10 206 53 249 42 42 108 48 158 15z"/>
<path d="M1840 1710 c-136 -46 -251 -195 -284 -367 -30 -158 8 -283 102 -340
31 -19 51 -23 128 -23 50 0 93 -3 97 -6 8 -8 -19 -73 -41 -98 -22 -25 -90 -56
-123 -56 -35 0 -57 -26 -42 -48 22 -36 137 -11 203 45 69 57 70 63 70 499 0
302 -3 394 -12 401 -18 14 -41 12 -98 -7z m45 -367 l0 -298 -80 -3 c-66 -2
-86 1 -113 18 -38 24 -69 84 -75 149 -14 138 83 344 193 413 26 16 60 27 70
22 3 -1 5 -137 5 -301z"/>
<path d="M2512 1717 c-26 -33 -43 -134 -44 -254 0 -112 7 -156 37 -232 57
-147 185 -261 291 -261 28 0 44 5 45 13 4 42 3 720 -1 726 -10 15 -38 19 -49
8 -8 -8 -11 -111 -11 -345 l0 -333 -22 6 c-87 27 -194 174 -217 297 -15 86 -4
281 19 344 6 16 5 26 -3 31 -19 12 -35 12 -45 0z"/>
<path d="M2938 1723 c-10 -3 -19 -10 -19 -16 -7 -63 -3 -715 4 -724 12 -16 44
-17 53 -1 4 6 7 109 7 228 l0 217 46 -1 c40 0 49 -4 68 -31 12 -18 38 -95 58
-171 65 -244 66 -249 98 -252 23 -3 27 0 27 20 0 44 -97 376 -124 424 l-26 47
25 27 c27 28 95 179 95 210 0 26 -30 34 -51 13 -9 -10 -29 -52 -45 -93 -15
-41 -40 -87 -55 -102 -26 -27 -32 -28 -106 -28 -5 0 -8 47 -9 105 -1 111 -10
136 -46 128z"/>
</g>
</svg>
